<svg width="57" height="56" viewBox="0 0 57 56" fill="none" xmlns="http://www.w3.org/2000/svg">
<path fill-rule="evenodd" clip-rule="evenodd" d="M49.3678 10.1462C50.0122 10.1462 50.5345 10.6686 50.5345 11.3129V21.8129C50.5345 22.4572 50.0122 22.9796 49.3678 22.9796H38.8678C38.2235 22.9796 37.7012 22.4572 37.7012 21.8129C37.7012 21.1686 38.2235 20.6462 38.8678 20.6462H48.2012V11.3129C48.2012 10.6686 48.7235 10.1462 49.3678 10.1462Z" fill="black"/>
<path fill-rule="evenodd" clip-rule="evenodd" d="M28.3312 9.91659C25.9565 9.91659 23.605 10.3843 21.411 11.2931C19.217 12.2019 17.2236 13.5339 15.5444 15.2131C15.0887 15.6687 14.3501 15.6687 13.8944 15.2131C13.4388 14.7575 13.4388 14.0188 13.8944 13.5632C15.7903 11.6673 18.041 10.1634 20.5181 9.13738C22.9952 8.11135 25.6501 7.58325 28.3312 7.58325C31.0124 7.58325 33.6673 8.11135 36.1443 9.13738C38.6214 10.1634 40.8721 11.6673 42.768 13.5632L50.1926 20.9878C50.6482 21.4434 50.6482 22.1821 50.1926 22.6377C49.737 23.0933 48.9983 23.0933 48.5427 22.6377L41.1181 15.2131C39.4389 13.5339 37.4454 12.2019 35.2514 11.2931C33.0574 10.3843 30.7059 9.91659 28.3312 9.91659Z" fill="black"/>
<path fill-rule="evenodd" clip-rule="evenodd" d="M6.12891 34.1872C6.12891 33.5428 6.65124 33.0205 7.29557 33.0205H17.7956C18.4399 33.0205 18.9622 33.5428 18.9622 34.1872C18.9622 34.8315 18.4399 35.3538 17.7956 35.3538H8.46224V44.6872C8.46224 45.3315 7.93991 45.8538 7.29557 45.8538C6.65124 45.8538 6.12891 45.3315 6.12891 44.6872V34.1872Z" fill="black"/>
<path fill-rule="evenodd" clip-rule="evenodd" d="M6.47062 33.3622C6.92623 32.9066 7.66492 32.9066 8.12053 33.3622L15.5452 40.7868C17.2243 42.466 19.2178 43.798 21.4118 44.7068C23.6058 45.6156 25.9573 46.0833 28.332 46.0833C30.7067 46.0833 33.0582 45.6156 35.2522 44.7068C37.4462 43.798 39.4397 42.466 41.1189 40.7868C41.5745 40.3312 42.3132 40.3312 42.7688 40.7868C43.2244 41.2425 43.2244 41.9811 42.7688 42.4368C40.8729 44.3326 38.6222 45.8365 36.1451 46.8625C33.6681 47.8886 31.0132 48.4167 28.332 48.4167C25.6508 48.4167 22.9959 47.8886 20.5189 46.8625C18.0418 45.8365 15.7911 44.3326 13.8952 42.4368L6.47061 35.0121C6.015 34.5565 6.015 33.8178 6.47062 33.3622Z" fill="black"/>
</svg>
