<svg width="56" height="56" viewBox="0 0 56 56" fill="none" xmlns="http://www.w3.org/2000/svg">
<path fill-rule="evenodd" clip-rule="evenodd" d="M28 8.16683C17.0463 8.16683 8.16665 17.0465 8.16665 28.0002C8.16665 38.9538 17.0463 47.8335 28 47.8335C38.9536 47.8335 47.8333 38.9538 47.8333 28.0002C47.8333 17.0465 38.9536 8.16683 28 8.16683ZM5.83331 28.0002C5.83331 15.7579 15.7577 5.8335 28 5.8335C40.2423 5.8335 50.1666 15.7579 50.1666 28.0002C50.1666 40.2425 40.2423 50.1668 28 50.1668C15.7577 50.1668 5.83331 40.2425 5.83331 28.0002Z" fill="white"/>
<path fill-rule="evenodd" clip-rule="evenodd" d="M24.5078 19.3447C24.9388 18.8658 25.6765 18.827 26.1554 19.258L34.9054 27.133C35.1513 27.3542 35.2917 27.6694 35.2917 28.0002C35.2917 28.3309 35.1513 28.6461 34.9054 28.8674L26.1554 36.7423C25.6765 37.1734 24.9388 37.1346 24.5078 36.6556C24.0768 36.1767 24.1156 35.439 24.5945 35.008L32.381 28.0002L24.5945 20.9923C24.1156 20.5613 24.0768 19.8236 24.5078 19.3447Z" fill="white"/>
</svg>
