<svg width="352" height="184" viewBox="0 0 352 184" fill="none" xmlns="http://www.w3.org/2000/svg">
<path fill-rule="evenodd" clip-rule="evenodd" d="M230.462 37.5395C231.959 39.0365 231.959 41.4636 230.462 42.9607L126.962 146.461C125.465 147.958 123.038 147.958 121.541 146.461C120.044 144.964 120.044 142.537 121.541 141.039L225.041 37.5395C226.538 36.0425 228.965 36.0425 230.462 37.5395Z" fill="#A7A7A7"/>
<path fill-rule="evenodd" clip-rule="evenodd" d="M121.541 37.5395C123.038 36.0425 125.465 36.0425 126.962 37.5395L230.462 141.039C231.959 142.537 231.959 144.964 230.462 146.461C228.965 147.958 226.538 147.958 225.041 146.461L121.541 42.9607C120.044 41.4636 120.044 39.0365 121.541 37.5395Z" fill="#A7A7A7"/>
</svg>
