<svg width="57" height="56" viewBox="0 0 57 56" fill="none" xmlns="http://www.w3.org/2000/svg">
<path fill-rule="evenodd" clip-rule="evenodd" d="M28.6667 8.16659C17.713 8.16659 8.83333 17.0463 8.83333 27.9999C8.83333 38.9536 17.713 47.8333 28.6667 47.8333C39.6203 47.8333 48.5 38.9536 48.5 27.9999C48.5 17.0463 39.6203 8.16659 28.6667 8.16659ZM6.5 27.9999C6.5 15.7576 16.4244 5.83325 28.6667 5.83325C40.909 5.83325 50.8333 15.7576 50.8333 27.9999C50.8333 40.2422 40.909 50.1666 28.6667 50.1666C16.4244 50.1666 6.5 40.2422 6.5 27.9999Z" fill="black"/>
<path fill-rule="evenodd" clip-rule="evenodd" d="M28.6667 14.5833C29.311 14.5833 29.8333 15.1056 29.8333 15.7499V26.8333H40.9167C41.561 26.8333 42.0833 27.3556 42.0833 27.9999C42.0833 28.6443 41.561 29.1666 40.9167 29.1666H28.6667C28.0223 29.1666 27.5 28.6443 27.5 27.9999V15.7499C27.5 15.1056 28.0223 14.5833 28.6667 14.5833Z" fill="black"/>
</svg>
