<svg width="24" height="24" viewBox="0 0 24 24" fill="none" xmlns="http://www.w3.org/2000/svg">
<path fill-rule="evenodd" clip-rule="evenodd" d="M19.1036 4.89645C19.2988 5.09171 19.2988 5.40829 19.1036 5.60355L5.60355 19.1036C5.40829 19.2988 5.09171 19.2988 4.89645 19.1036C4.70118 18.9083 4.70118 18.5917 4.89645 18.3964L18.3964 4.89645C18.5917 4.70118 18.9083 4.70118 19.1036 4.89645Z" fill="black"/>
<path fill-rule="evenodd" clip-rule="evenodd" d="M4.89645 4.89645C5.09171 4.70118 5.40829 4.70118 5.60355 4.89645L19.1036 18.3964C19.2988 18.5917 19.2988 18.9083 19.1036 19.1036C18.9083 19.2988 18.5917 19.2988 18.3964 19.1036L4.89645 5.60355C4.70118 5.40829 4.70118 5.09171 4.89645 4.89645Z" fill="black"/>
</svg>
