<svg width="72" height="72" viewBox="0 0 72 72" fill="none" xmlns="http://www.w3.org/2000/svg">
<path fill-rule="evenodd" clip-rule="evenodd" d="M34.4067 5.37417C34.8931 5.10053 35.4419 4.95679 36 4.95679C36.5581 4.95679 37.1069 5.10053 37.5933 5.37417L62.3433 19.296C62.846 19.5788 63.2643 19.9901 63.5554 20.4879C63.8466 20.9857 64 21.552 64 22.1287V49.8718C64 50.4485 63.8466 51.0148 63.5554 51.5126C63.2643 52.0104 62.846 52.4217 62.3433 52.7045L37.5933 66.6263C37.1069 66.9 36.5581 67.0437 36 67.0437C35.4419 67.0437 34.8931 66.9 34.4067 66.6263L9.65665 52.7045C9.15404 52.4218 8.7357 52.0104 8.44457 51.5126C8.15344 51.0148 8 50.4485 8 49.8718V22.1287C8 21.552 8.15344 20.9857 8.44457 20.4879C8.7357 19.9901 9.15404 19.5788 9.65665 19.296L34.4067 5.37417ZM36 6.95679C35.7853 6.95679 35.5743 7.01207 35.3872 7.11732L10.6372 21.0392C10.4439 21.1479 10.283 21.3061 10.171 21.4976C10.059 21.6891 10 21.9069 10 22.1287V49.8718C10 50.0936 10.059 50.3115 10.171 50.5029C10.283 50.6944 10.4439 50.8526 10.6372 50.9613L35.3872 64.8832C35.5743 64.9884 35.7853 65.0437 36 65.0437C36.2147 65.0437 36.4257 64.9884 36.6128 64.8832L61.3628 50.9613C61.5561 50.8526 61.717 50.6944 61.829 50.5029C61.941 50.3115 62 50.0936 62 49.8718V22.1287C62 21.9069 61.941 21.6891 61.829 21.4976C61.717 21.3061 61.5561 21.1479 61.3628 21.0392L36.6128 7.11732C36.4257 7.01207 36.2147 6.95679 36 6.95679Z" fill="#85AF27"/>
<path fill-rule="evenodd" clip-rule="evenodd" d="M8.43906 20.4994C8.7078 20.0169 9.3168 19.8437 9.79929 20.1124L36.2631 34.8526L62.1969 20.1191C62.6771 19.8463 63.2875 20.0144 63.5603 20.4946C63.8331 20.9748 63.665 21.5852 63.1848 21.858L36.7619 36.8695C36.4582 37.042 36.0865 37.0436 35.7814 36.8736L8.82608 21.8596C8.34359 21.5909 8.17031 20.9819 8.43906 20.4994Z" fill="#85AF27"/>
<path fill-rule="evenodd" clip-rule="evenodd" d="M36.2767 35C36.829 35.0049 37.2728 35.4565 37.2679 36.0088L37.0039 66.0523C36.999 66.6045 36.5474 67.0483 35.9951 67.0435C35.4429 67.0386 34.9991 66.587 35.0039 66.0347L35.268 35.9912C35.2728 35.4389 35.7245 34.9952 36.2767 35Z" fill="#85AF27"/>
</svg>
