<svg width="72" height="72" viewBox="0 0 72 72" fill="none" xmlns="http://www.w3.org/2000/svg">
<path fill-rule="evenodd" clip-rule="evenodd" d="M25.6922 5.44042C26.9346 4.19799 28.6197 3.5 30.3768 3.5C32.1339 3.5 33.819 4.19799 35.0614 5.44042C36.3038 6.68285 37.0018 8.36794 37.0018 10.125V29.25C37.0018 29.8023 36.5541 30.25 36.0018 30.25C35.4495 30.25 35.0018 29.8023 35.0018 29.25V10.125C35.0018 8.89837 34.5145 7.72199 33.6472 6.85463C32.7798 5.98728 31.6034 5.5 30.3768 5.5C29.1502 5.5 27.9738 5.98728 27.1064 6.85463C26.2391 7.72199 25.7518 8.89837 25.7518 10.125V44.2311C25.7518 44.6837 25.4478 45.0799 25.0106 45.197C24.5734 45.3142 24.1121 45.1231 23.8858 44.7311L17.7187 34.0493C17.4153 33.5228 17.0106 33.0605 16.5288 32.6903C16.0469 32.32 15.4968 32.0484 14.9098 31.8909C14.3229 31.7333 13.7107 31.693 13.1082 31.7722C12.5057 31.8514 11.9247 32.0485 11.3984 32.3524C10.8722 32.6562 10.4109 33.0608 10.0411 33.543C9.67125 34.0252 9.40007 34.5755 9.24303 35.1626C9.08599 35.7496 9.04619 36.3619 9.12589 36.9643C9.20558 37.5668 9.40322 38.1476 9.70751 38.6736C9.72117 38.6972 9.73385 38.7214 9.74554 38.746C14.3287 48.4157 17.9494 54.7864 21.905 58.7532C25.7855 62.6446 30.0189 64.25 36.0018 64.25C38.8252 64.25 41.621 63.6939 44.2295 62.6134C46.838 61.5329 49.2081 59.9493 51.2046 57.9528C53.2011 55.9563 54.7847 53.5862 55.8652 50.9777C56.9457 48.3692 57.5018 45.5734 57.5018 42.75V31.5C57.5018 30.2734 57.0145 29.097 56.1472 28.2296C55.2798 27.3623 54.1034 26.875 52.8768 26.875C51.6502 26.875 50.4738 27.3623 49.6064 28.2296C48.7391 29.097 48.2518 30.2734 48.2518 31.5C48.2518 32.0523 47.8041 32.5 47.2518 32.5C46.6995 32.5 46.2518 32.0523 46.2518 31.5C46.2518 29.7429 46.9498 28.0578 48.1922 26.8154C49.4346 25.573 51.1197 24.875 52.8768 24.875C54.6339 24.875 56.319 25.573 57.5614 26.8154C58.8038 28.0578 59.5018 29.7429 59.5018 31.5V42.75C59.5018 45.8361 58.894 48.8919 57.713 51.7431C56.532 54.5942 54.801 57.1848 52.6188 59.367C50.4366 61.5492 47.846 63.2802 44.9949 64.4612C42.1437 65.6422 39.0879 66.25 36.0018 66.25C29.5583 66.25 24.7917 64.4804 20.4888 60.1654C16.2662 55.931 12.5241 49.2749 7.95509 39.6381C7.53124 38.8944 7.25546 38.0755 7.14316 37.2266C7.029 36.3637 7.08602 35.4867 7.31096 34.6458C7.53591 33.8049 7.92436 33.0165 8.45413 32.3258C8.98389 31.6351 9.64458 31.0556 10.3984 30.6203C11.1523 30.1851 11.9845 29.9027 12.8476 29.7893C13.7106 29.6758 14.5876 29.7336 15.4283 29.9592C16.269 30.1849 17.057 30.574 17.7473 31.1043C18.4373 31.6345 19.0161 32.2954 19.4507 33.0493M19.4507 33.0493L23.7518 40.499V10.125C23.7518 8.36794 24.4498 6.68285 25.6922 5.44042" fill="#85AF27"/>
<path fill-rule="evenodd" clip-rule="evenodd" d="M36.9404 23.4404C38.1828 22.198 39.8679 21.5 41.625 21.5C43.3821 21.5 45.0672 22.198 46.3096 23.4404C47.552 24.6828 48.25 26.3679 48.25 28.125V31.5C48.25 32.0523 47.8023 32.5 47.25 32.5C46.6977 32.5 46.25 32.0523 46.25 31.5V28.125C46.25 26.8984 45.7627 25.722 44.8954 24.8546C44.028 23.9873 42.8516 23.5 41.625 23.5C40.3984 23.5 39.222 23.9873 38.3546 24.8546C37.4873 25.722 37 26.8984 37 28.125V29.25C37 29.8023 36.5523 30.25 36 30.25C35.4477 30.25 35 29.8023 35 29.25V28.125C35 26.3679 35.698 24.6828 36.9404 23.4404Z" fill="#85AF27"/>
</svg>
