<svg width="56" height="56" viewBox="0 0 56 56" fill="none" xmlns="http://www.w3.org/2000/svg">
<path d="M27.9752 2.33325C23.9482 2.33325 20.6836 5.59786 20.6836 9.62492C20.6836 13.652 23.9482 16.9166 27.9752 16.9166C32.0023 16.9166 35.2668 13.652 35.2668 9.62492C35.2668 5.5978 32.0023 2.33325 27.9752 2.33325ZM27.9752 4.66659C30.7137 4.66659 32.9335 6.88646 32.9335 9.62492C32.9335 12.3634 30.7137 14.5833 27.9752 14.5833C25.2368 14.5833 23.0169 12.3633 23.0169 9.62492C23.0169 6.88652 25.2368 4.66659 27.9752 4.66659Z" fill="black"/>
<path d="M33.2249 18.0833H22.7278C21.9994 18.0823 21.2781 18.2253 20.6052 18.5041C19.9323 18.7828 19.3211 19.1917 18.8067 19.7075L10.0497 30.9519C9.79351 31.1955 9.51428 31.6134 9.32377 32.0734C9.13323 32.5335 9.03516 33.0265 9.03516 33.5243C9.03516 34.0224 9.13321 34.5154 9.32374 34.9755C9.51436 35.4357 9.79374 35.8537 10.1459 36.2057C10.4978 36.5577 10.9159 36.8371 11.3761 37.0276C11.836 37.218 12.329 37.316 12.8268 37.316C13.3246 37.316 13.8176 37.218 14.2776 37.0276L14.6144 36.8683C14.9427 36.6928 15.2439 36.4695 15.5081 36.2053L20.0419 32.6829L15.1048 48.278C14.7347 49.0484 14.6892 50.0912 15.0331 51.0362C15.377 51.9812 16.0822 52.7508 16.9937 53.1758C17.905 53.6008 18.9478 53.6463 19.8928 53.3025L20.2387 53.1568C21.025 52.7788 21.6607 52.1393 22.0325 51.3419L27.9752 42.0046L33.9928 51.4745C34.3472 52.253 35.1168 52.9561 36.0608 53.2988C37.0051 53.6414 38.0465 53.5953 38.9566 53.1709C39.8668 52.7467 40.5713 51.9785 40.9158 51.035L41.0268 50.6771C41.2434 49.8333 41.1636 48.9363 40.7938 48.1391L35.9086 32.6876L40.5534 36.3014C41.1558 36.9166 42.1201 37.316 43.1258 37.316C44.1315 37.316 45.0958 36.9166 45.8069 36.2055C46.5179 35.4948 46.9174 34.5301 46.9174 33.5243C46.9174 32.5188 46.518 31.5543 45.8069 30.8432L37.2408 19.8151C36.6317 19.1919 36.0205 18.7829 35.3475 18.5041C34.6748 18.2254 33.9532 18.0823 33.2249 18.0833ZM22.7248 20.4166H33.2264C33.6487 20.416 34.0658 20.4987 34.4545 20.6597C34.8434 20.8209 35.1967 21.0573 35.4938 21.3552L44.061 32.3844C44.4305 32.7666 44.5841 33.1376 44.5841 33.5243C44.5841 33.9112 44.4305 34.2822 44.1572 34.5553C43.8835 34.8291 43.5126 34.9827 43.1258 34.9827C42.7389 34.9827 42.3681 34.8291 42.0946 34.5555L34.385 28.5479C33.4811 27.8448 32.2109 28.7291 32.5565 29.8209L38.6232 48.9823C38.8396 49.4714 38.8565 49.8719 38.724 50.2348C38.5915 50.5977 38.3206 50.893 37.9707 51.0561C37.6204 51.2194 37.2198 51.2371 36.8568 51.1055C36.4938 50.9737 36.1977 50.7032 36.034 50.3538L28.9611 39.2045C28.5028 38.4832 27.45 38.4832 26.9917 39.2045L19.9905 50.2232C19.7544 50.7063 19.4584 50.9775 19.0947 51.1099C18.7315 51.2421 18.3303 51.2245 17.9798 51.0611C17.6292 50.8976 17.358 50.6017 17.2257 50.2382C17.0934 49.8747 17.111 49.4737 17.2744 49.1232L23.396 29.8209C23.7417 28.7291 22.4715 27.8448 21.5675 28.5479L13.9667 34.4596C13.7225 34.6911 13.5618 34.7985 13.3851 34.8716C13.2081 34.9449 13.0183 34.9827 12.8268 34.9827C12.6353 34.9827 12.4456 34.9449 12.2685 34.8716C12.0918 34.7985 11.9312 34.6911 11.7957 34.5557C11.6601 34.4201 11.5527 34.2595 11.4795 34.0826C11.4062 33.9057 11.3685 33.716 11.3685 33.5243C11.3685 33.3329 11.4062 33.1432 11.4795 32.9662C11.5528 32.7894 11.6602 32.6286 11.7958 32.493L20.5536 21.2476C20.756 21.0572 21.1092 20.8208 21.4981 20.6598C21.887 20.4987 22.3039 20.416 22.7248 20.4166Z" fill="black"/>
</svg>
