<svg width="57" height="56" viewBox="0 0 57 56" fill="none" xmlns="http://www.w3.org/2000/svg">
<path fill-rule="evenodd" clip-rule="evenodd" d="M36.4916 20.175C36.9472 20.6306 36.9472 21.3693 36.4916 21.8249L10.2416 48.0749C9.78601 48.5305 9.04732 48.5305 8.59171 48.0749C8.1361 47.6193 8.1361 46.8806 8.59171 46.425L34.8417 20.175C35.2973 19.7193 36.036 19.7193 36.4916 20.175Z" fill="black"/>
<path fill-rule="evenodd" clip-rule="evenodd" d="M15.5173 41.1487C23.7866 45.9956 31.8539 45.0715 37.7146 39.615C43.5709 34.1626 47.4271 23.9909 46.8049 9.86109C32.675 9.23884 22.5034 13.0951 17.051 18.9513C11.5944 24.8121 10.6704 32.8794 15.5173 41.1487ZM15.3432 17.3614C21.5702 10.6731 32.907 6.69853 47.9844 7.58544C48.5748 7.62016 49.0458 8.09118 49.0805 8.68158C49.9674 23.759 45.9928 35.0958 39.3046 41.3227C32.5372 47.6234 23.2087 48.4863 14.0656 43.0005C13.9014 42.902 13.764 42.7645 13.6655 42.6003C8.17963 33.4573 9.04255 24.1288 15.3432 17.3614Z" fill="black"/>
</svg>
