<svg width="56" height="56" viewBox="0 0 56 56" fill="none" xmlns="http://www.w3.org/2000/svg">
<path d="M27.0039 7.87118L9.50391 14.2348C8.94126 14.4394 8.4552 14.8122 8.11172 15.3025C7.76823 15.793 7.58398 16.3772 7.58398 16.9759V29.7501C7.58398 35.2371 10.9865 39.4815 16.6527 42.6293C20.2346 44.6192 24.1253 45.8833 27.4092 46.5716C27.799 46.6536 28.2022 46.6536 28.5928 46.5715C31.8763 45.8832 35.7667 44.6192 39.3486 42.6293C45.0148 39.4815 48.4173 35.2371 48.4173 29.7501V16.9759C48.4173 16.3773 48.2331 15.7932 47.8898 15.3028C47.546 14.812 47.0599 14.4393 46.4972 14.2347L28.9974 7.87118C28.3536 7.63702 27.6477 7.63702 27.0039 7.87118ZM28.1999 10.064L45.6999 16.4276C45.8126 16.4686 45.9098 16.5431 45.9786 16.6413C46.0471 16.7392 46.084 16.8561 46.084 16.9759V29.7501C46.084 34.2345 43.2167 37.8112 38.2155 40.5896C34.8741 42.4459 31.1884 43.6434 28.1136 44.2879C28.0389 44.3036 27.9625 44.3036 27.8886 44.2881C24.8131 43.6435 21.1273 42.4459 17.7859 40.5896C12.7846 37.8112 9.91732 34.2345 9.91732 29.7501V16.9759C9.91732 16.8561 9.95417 16.7393 10.0229 16.6412C10.0915 16.5431 10.1888 16.4686 10.3013 16.4276L27.8014 10.064C27.9301 10.0172 28.0712 10.0172 28.1999 10.064Z" fill="black"/>
<path d="M36.7507 23.3333C37.395 23.3333 37.9173 23.8556 37.9173 24.4999C37.9173 25.0727 37.5046 25.549 36.9604 25.6478L36.7507 25.6666H19.2507C18.6063 25.6666 18.084 25.1443 18.084 24.4999C18.084 23.9272 18.4967 23.4508 19.0409 23.352L19.2507 23.3333H36.7507Z" fill="black"/>
<path d="M36.7507 30.3333C37.395 30.3333 37.9173 30.8556 37.9173 31.4999C37.9173 32.0727 37.5046 32.549 36.9604 32.6478L36.7507 32.6666H19.2507C18.6063 32.6666 18.084 32.1442 18.084 31.4999C18.084 30.9272 18.4967 30.4508 19.0409 30.352L19.2507 30.3333H36.7507Z" fill="black"/>
<path d="M49.0007 16.3333C50.7026 16.3333 52.3348 17.0093 53.5381 18.2127C54.632 19.3066 55.2901 20.7549 55.4007 22.2878L55.4174 22.7499V27.9999C55.4174 29.7017 54.7414 31.3339 53.5381 32.5372C52.4442 33.6311 50.9958 34.2893 49.4629 34.3999L49.0007 34.4166H46.6842C46.0399 34.4166 45.5176 33.8943 45.5176 33.2499C45.5176 32.6772 45.9303 32.2008 46.4745 32.102L46.6842 32.0833H49.0007C50.0837 32.0833 51.1224 31.653 51.8882 30.8872C52.5582 30.2173 52.9713 29.3383 53.0641 28.4035L53.084 27.9999V22.7499C53.084 21.6669 52.6539 20.6283 51.8882 19.8626C51.2182 19.1925 50.3392 18.7794 49.4043 18.6866L49.0007 18.6666H47.2507C46.6064 18.6666 46.0841 18.1443 46.0841 17.4999C46.0841 16.9272 46.4968 16.4508 47.041 16.352L47.2507 16.3333H49.0007Z" fill="black"/>
<path d="M8.75065 16.3333C9.39498 16.3333 9.91732 16.8556 9.91732 17.4999C9.91732 18.0727 9.50461 18.549 8.96036 18.6478L8.75065 18.6666H7.00065C5.91772 18.6666 4.8791 19.0968 4.11329 19.8626C3.44326 20.5326 3.03012 21.4116 2.9373 22.3463L2.91732 22.7499V27.9999C2.91732 29.0828 3.34754 30.1215 4.11329 30.8872C4.78337 31.5573 5.66233 31.9705 6.59708 32.0633L7.00065 32.0833H9.31748C9.96181 32.0833 10.4841 32.6056 10.4841 33.2499C10.4841 33.8227 10.0714 34.299 9.52719 34.3978L9.31748 34.4166H7.00065C5.29887 34.4166 3.66677 33.7405 2.46339 32.5372C1.36944 31.4432 0.711262 29.9949 0.600634 28.462L0.583984 27.9999V22.7499C0.583984 21.0482 1.26005 19.416 2.46339 18.2127C3.55737 17.1187 5.00567 16.4605 6.53853 16.3499L7.00065 16.3333H8.75065Z" fill="black"/>
</svg>
