<svg width="44" height="44" viewBox="0 0 44 44" fill="none" xmlns="http://www.w3.org/2000/svg">
<path fill-rule="evenodd" clip-rule="evenodd" d="M35.0238 8.97686C35.3818 9.33484 35.3818 9.91524 35.0238 10.2732L10.2738 35.0232C9.91585 35.3812 9.33545 35.3812 8.97747 35.0232C8.61949 34.6652 8.61949 34.0848 8.97747 33.7269L33.7275 8.97686C34.0854 8.61888 34.6658 8.61888 35.0238 8.97686Z" fill="white"/>
<path fill-rule="evenodd" clip-rule="evenodd" d="M8.97747 8.97686C9.33545 8.61888 9.91585 8.61888 10.2738 8.97686L35.0238 33.7269C35.3818 34.0848 35.3818 34.6652 35.0238 35.0232C34.6658 35.3812 34.0854 35.3812 33.7275 35.0232L8.97747 10.2732C8.61949 9.91524 8.61949 9.33484 8.97747 8.97686Z" fill="white"/>
</svg>
