<svg width="24" height="24" viewBox="0 0 24 24" fill="none" xmlns="http://www.w3.org/2000/svg">
<path fill-rule="evenodd" clip-rule="evenodd" d="M3.25 12C3.25 11.7239 3.47386 11.5 3.75 11.5H20.25C20.5261 11.5 20.75 11.7239 20.75 12C20.75 12.2761 20.5261 12.5 20.25 12.5H3.75C3.47386 12.5 3.25 12.2761 3.25 12Z" fill="black"/>
<path fill-rule="evenodd" clip-rule="evenodd" d="M3.25 6C3.25 5.72386 3.47386 5.5 3.75 5.5H20.25C20.5261 5.5 20.75 5.72386 20.75 6C20.75 6.27614 20.5261 6.5 20.25 6.5H3.75C3.47386 6.5 3.25 6.27614 3.25 6Z" fill="black"/>
<path fill-rule="evenodd" clip-rule="evenodd" d="M3.25 18C3.25 17.7239 3.47386 17.5 3.75 17.5H20.25C20.5261 17.5 20.75 17.7239 20.75 18C20.75 18.2761 20.5261 18.5 20.25 18.5H3.75C3.47386 18.5 3.25 18.2761 3.25 18Z" fill="black"/>
</svg>
