<svg width="57" height="56" viewBox="0 0 57 56" fill="none" xmlns="http://www.w3.org/2000/svg">
<path fill-rule="evenodd" clip-rule="evenodd" d="M28.3327 12.8333C28.977 12.8333 29.4993 13.3556 29.4993 13.9999V41.9999C29.4993 42.6442 28.977 43.1666 28.3327 43.1666C27.6884 43.1666 27.166 42.6442 27.166 41.9999V13.9999C27.166 13.3556 27.6884 12.8333 28.3327 12.8333Z" fill="black"/>
<path fill-rule="evenodd" clip-rule="evenodd" d="M22.2577 7.92496C22.7133 7.46935 23.452 7.46935 23.9076 7.92496L28.3327 12.35L32.7577 7.92496C33.2133 7.46935 33.952 7.46935 34.4076 7.92496C34.8633 8.38057 34.8633 9.11927 34.4076 9.57488L29.1576 14.8249C28.702 15.2805 27.9633 15.2805 27.5077 14.8249L22.2577 9.57488C21.8021 9.11927 21.8021 8.38057 22.2577 7.92496Z" fill="black"/>
<path fill-rule="evenodd" clip-rule="evenodd" d="M27.5077 41.175C27.9633 40.7193 28.702 40.7193 29.1576 41.175L34.4076 46.425C34.8633 46.8806 34.8633 47.6193 34.4076 48.0749C33.952 48.5305 33.2133 48.5305 32.7577 48.0749L28.3327 43.6498L23.9076 48.0749C23.452 48.5305 22.7133 48.5305 22.2577 48.0749C21.8021 47.6193 21.8021 46.8806 22.2577 46.425L27.5077 41.175Z" fill="black"/>
<path fill-rule="evenodd" clip-rule="evenodd" d="M15.1975 20.4165C15.5197 19.8585 16.2332 19.6673 16.7912 19.9895L41.0399 33.9895C41.5979 34.3117 41.7891 35.0252 41.467 35.5832C41.1448 36.1412 40.4313 36.3324 39.8733 36.0102L15.6245 22.0102C15.0665 21.6881 14.8753 20.9745 15.1975 20.4165Z" fill="black"/>
<path fill-rule="evenodd" clip-rule="evenodd" d="M13.9842 12.7014C14.6065 12.5347 15.2463 12.904 15.413 13.5264L17.3345 20.6981C17.5013 21.3205 17.1319 21.9602 16.5096 22.127L9.33807 24.0487C8.7157 24.2155 8.07596 23.8461 7.90919 23.2237C7.74241 22.6014 8.11175 21.9616 8.73412 21.7949L14.7788 20.1751L13.1592 14.1303C12.9924 13.5079 13.3618 12.8682 13.9842 12.7014Z" fill="black"/>
<path fill-rule="evenodd" clip-rule="evenodd" d="M48.7544 32.7764C48.9212 33.3987 48.5519 34.0385 47.9295 34.2052L41.8849 35.825L43.5044 41.8698C43.6712 42.4922 43.3018 43.1319 42.6795 43.2987C42.0571 43.4654 41.4174 43.0961 41.2506 42.4737L39.3291 35.302C39.1624 34.6796 39.5317 34.0399 40.154 33.8731L47.3256 31.9514C47.9479 31.7846 48.5877 32.154 48.7544 32.7764Z" fill="black"/>
<path fill-rule="evenodd" clip-rule="evenodd" d="M41.467 20.4165C41.7891 20.9745 41.5979 21.6881 41.0399 22.0102L16.7912 36.0102C16.2332 36.3324 15.5197 36.1412 15.1975 35.5832C14.8753 35.0252 15.0665 34.3117 15.6245 33.9895L39.8733 19.9895C40.4313 19.6673 41.1448 19.8585 41.467 20.4165Z" fill="black"/>
<path fill-rule="evenodd" clip-rule="evenodd" d="M7.90919 32.7764C8.07596 32.154 8.7157 31.7846 9.33807 31.9514L16.5096 33.8731C17.1319 34.0399 17.5013 34.6796 17.3345 35.302L15.413 42.4737C15.2463 43.0961 14.6065 43.4654 13.9842 43.2987C13.3618 43.1319 12.9924 42.4922 13.1592 41.8698L14.7788 35.825L8.73412 34.2052C8.11175 34.0385 7.74241 33.3987 7.90919 32.7764Z" fill="black"/>
<path fill-rule="evenodd" clip-rule="evenodd" d="M42.6795 12.7014C43.3018 12.8682 43.6712 13.5079 43.5044 14.1303L41.8849 20.1751L47.9295 21.7949C48.5519 21.9616 48.9212 22.6014 48.7544 23.2237C48.5877 23.8461 47.9479 24.2155 47.3256 24.0487L40.154 22.127C39.5317 21.9602 39.1624 21.3205 39.3291 20.6981L41.2506 13.5264C41.4174 12.904 42.0571 12.5347 42.6795 12.7014Z" fill="black"/>
</svg>
