<svg width="72" height="72" viewBox="0 0 72 72" fill="none" xmlns="http://www.w3.org/2000/svg">
<path fill-rule="evenodd" clip-rule="evenodd" d="M13.5 38.259C14.0523 38.259 14.5 38.7067 14.5 39.259V58.4999C14.5 58.8314 14.6317 59.1493 14.8661 59.3837C15.1005 59.6182 15.4185 59.7499 15.75 59.7499H56.25C56.5815 59.7499 56.8995 59.6182 57.1339 59.3837C57.3683 59.1493 57.5 58.8314 57.5 58.4999V39.2595C57.5 38.7072 57.9477 38.2595 58.5 38.2595C59.0523 38.2595 59.5 38.7072 59.5 39.2595V58.4999C59.5 59.3618 59.1576 60.1885 58.5481 60.798C57.9386 61.4075 57.1119 61.7499 56.25 61.7499H15.75C14.888 61.7499 14.0614 61.4075 13.4519 60.798C12.8424 60.1885 12.5 59.3618 12.5 58.4999V39.259C12.5 38.7067 12.9477 38.259 13.5 38.259Z" fill="#85AF27"/>
<path fill-rule="evenodd" clip-rule="evenodd" d="M15.1972 12.25C14.9255 12.25 14.6613 12.3385 14.4444 12.5021C14.2276 12.6656 14.0699 12.8954 13.9953 13.1566L10.3257 26H61.6743L58.0047 13.1566C57.9301 12.8954 57.7724 12.6656 57.5556 12.5021C57.3387 12.3385 57.0745 12.25 56.8028 12.25H15.1972ZM13.2401 10.9054C13.8039 10.4801 14.4909 10.25 15.1972 10.25H56.8028C57.5091 10.25 58.1961 10.4801 58.76 10.9054C59.3238 11.3307 59.7338 11.9281 59.9278 12.6072L63.9615 26.7253C64.0477 27.027 63.9873 27.3517 63.7984 27.6022C63.6094 27.8527 63.3138 28 63 28H9.00001C8.68622 28 8.39062 27.8527 8.20166 27.6022C8.0127 27.3517 7.95228 27.027 8.03848 26.7253L12.0722 12.6072C12.2663 11.9281 12.6762 11.3307 13.2401 10.9054Z" fill="#85AF27"/>
<path fill-rule="evenodd" clip-rule="evenodd" d="M9 26C9.55228 26 10 26.4477 10 27V31.5C10 33.6217 10.8429 35.6566 12.3431 37.1569C13.8434 38.6571 15.8783 39.5 18 39.5C20.1217 39.5 22.1566 38.6571 23.6569 37.1569C25.1571 35.6566 26 33.6217 26 31.5V27C26 26.4477 26.4477 26 27 26C27.5523 26 28 26.4477 28 27V31.5C28 34.1522 26.9464 36.6957 25.0711 38.5711C23.1957 40.4464 20.6522 41.5 18 41.5C15.3478 41.5 12.8043 40.4464 10.9289 38.5711C9.05357 36.6957 8 34.1522 8 31.5V27C8 26.4477 8.44772 26 9 26Z" fill="#85AF27"/>
<path fill-rule="evenodd" clip-rule="evenodd" d="M27 26C27.5523 26 28 26.4477 28 27V31.5C28 33.6217 28.8429 35.6566 30.3431 37.1569C31.8434 38.6571 33.8783 39.5 36 39.5C38.1217 39.5 40.1566 38.6571 41.6569 37.1569C43.1571 35.6566 44 33.6217 44 31.5V27C44 26.4477 44.4477 26 45 26C45.5523 26 46 26.4477 46 27V31.5C46 34.1522 44.9464 36.6957 43.0711 38.5711C41.1957 40.4464 38.6522 41.5 36 41.5C33.3478 41.5 30.8043 40.4464 28.9289 38.5711C27.0536 36.6957 26 34.1522 26 31.5V27C26 26.4477 26.4477 26 27 26Z" fill="#85AF27"/>
<path fill-rule="evenodd" clip-rule="evenodd" d="M45 26C45.5523 26 46 26.4477 46 27V31.5C46 33.6217 46.8429 35.6566 48.3431 37.1569C49.8434 38.6571 51.8783 39.5 54 39.5C56.1217 39.5 58.1566 38.6571 59.6569 37.1569C61.1571 35.6566 62 33.6217 62 31.5V27C62 26.4477 62.4477 26 63 26C63.5523 26 64 26.4477 64 27V31.5C64 34.1522 62.9464 36.6957 61.0711 38.5711C59.1957 40.4464 56.6522 41.5 54 41.5C51.3478 41.5 48.8043 40.4464 46.9289 38.5711C45.0536 36.6957 44 34.1522 44 31.5V27C44 26.4477 44.4477 26 45 26Z" fill="#85AF27"/>
</svg>
