<svg width="72" height="72" viewBox="0 0 72 72" fill="none" xmlns="http://www.w3.org/2000/svg">
<path fill-rule="evenodd" clip-rule="evenodd" d="M12.5 13.5C12.5 12.9477 12.9477 12.5 13.5 12.5H31.5C32.0523 12.5 32.5 12.9477 32.5 13.5V31.5C32.5 32.0523 32.0523 32.5 31.5 32.5H13.5C12.9477 32.5 12.5 32.0523 12.5 31.5V13.5ZM14.5 14.5V30.5H30.5V14.5H14.5Z" fill="#85AF27"/>
<path fill-rule="evenodd" clip-rule="evenodd" d="M39.5 13.5C39.5 12.9477 39.9477 12.5 40.5 12.5H58.5C59.0523 12.5 59.5 12.9477 59.5 13.5V31.5C59.5 32.0523 59.0523 32.5 58.5 32.5H40.5C39.9477 32.5 39.5 32.0523 39.5 31.5V13.5ZM41.5 14.5V30.5H57.5V14.5H41.5Z" fill="#85AF27"/>
<path fill-rule="evenodd" clip-rule="evenodd" d="M12.5 40.5C12.5 39.9477 12.9477 39.5 13.5 39.5H31.5C32.0523 39.5 32.5 39.9477 32.5 40.5V58.5C32.5 59.0523 32.0523 59.5 31.5 59.5H13.5C12.9477 59.5 12.5 59.0523 12.5 58.5V40.5ZM14.5 41.5V57.5H30.5V41.5H14.5Z" fill="#85AF27"/>
<path fill-rule="evenodd" clip-rule="evenodd" d="M39.5 40.5C39.5 39.9477 39.9477 39.5 40.5 39.5H58.5C59.0523 39.5 59.5 39.9477 59.5 40.5V58.5C59.5 59.0523 59.0523 59.5 58.5 59.5H40.5C39.9477 59.5 39.5 59.0523 39.5 58.5V40.5ZM41.5 41.5V57.5H57.5V41.5H41.5Z" fill="#85AF27"/>
</svg>
