<svg width="32" height="32" viewBox="0 0 32 32" fill="none" xmlns="http://www.w3.org/2000/svg">
<path fill-rule="evenodd" clip-rule="evenodd" d="M15.2004 2.58119C15.4694 2.52738 15.7476 2.54083 16.0102 2.62034C16.2728 2.69985 16.5117 2.84297 16.7058 3.03698L16.2344 3.50839L16.7058 3.03698L29.7624 16.0936C29.9171 16.2483 30.0399 16.4321 30.1236 16.6343C30.2074 16.8365 30.2505 17.0532 30.2505 17.2721C30.2505 17.491 30.2074 17.7077 30.1236 17.9099C30.0399 18.1121 29.9171 18.2958 29.7624 18.4506L18.4486 29.7643C18.2939 29.9191 18.1102 30.0418 17.9079 30.1256C17.7057 30.2094 17.489 30.2525 17.2701 30.2525C17.0513 30.2525 16.8345 30.2094 16.6323 30.1256C16.4301 30.0418 16.2464 29.9191 16.0916 29.7643L3.03503 16.7077C2.84102 16.5137 2.6979 16.2748 2.61839 16.0122C2.53888 15.7496 2.52543 15.4714 2.57924 15.2023L3.01896 15.2903L2.57924 15.2023L4.5956 5.12053C4.64838 4.85662 4.85467 4.65034 5.11858 4.59756L15.2004 2.58119L15.3311 3.23491L15.2004 2.58119ZM15.6238 3.89646C15.5713 3.88056 15.5157 3.87787 15.4619 3.88863L5.81588 5.81783L3.88668 15.4638C3.87592 15.5176 3.87861 15.5733 3.89451 15.6258C3.91041 15.6783 3.93904 15.7261 3.97784 15.7649L3.5115 16.2312L3.97784 15.7649L17.0344 28.8215C17.0654 28.8525 17.1021 28.877 17.1426 28.8938C17.183 28.9105 17.2264 28.9191 17.2701 28.9191C17.3139 28.9191 17.3573 28.9105 17.3977 28.8938C17.4381 28.877 17.4749 28.8525 17.5058 28.8215L28.8195 17.5078C28.8505 17.4768 28.8751 17.4401 28.8918 17.3997C28.9086 17.3592 28.9172 17.3159 28.9172 17.2721C28.9172 17.2283 28.9086 17.185 28.8918 17.1445C28.8751 17.1041 28.8505 17.0673 28.8195 17.0364L15.763 3.97979L16.1113 3.63145L15.7629 3.97979C15.7241 3.94099 15.6764 3.91237 15.6238 3.89646Z" fill="#F4FFDC"/>
<path d="M10.5 11.5C11.0523 11.5 11.5 11.0523 11.5 10.5C11.5 9.94772 11.0523 9.5 10.5 9.5C9.94772 9.5 9.5 9.94772 9.5 10.5C9.5 11.0523 9.94772 11.5 10.5 11.5Z" fill="#F4FFDC"/>
</svg>
