<svg width="24" height="24" viewBox="0 0 24 24" fill="none" xmlns="http://www.w3.org/2000/svg">
<path fill-rule="evenodd" clip-rule="evenodd" d="M3.75 4.75001L20.25 4.75C20.5261 4.75 20.75 4.97386 20.75 5.25C20.75 5.52614 20.5261 5.75 20.25 5.75L3.75 5.75001C3.47386 5.75001 3.25 5.52615 3.25 5.25001C3.25 4.97386 3.47386 4.75001 3.75 4.75001Z" fill="black"/>
<path fill-rule="evenodd" clip-rule="evenodd" d="M9.75 9.25C10.0261 9.25 10.25 9.47386 10.25 9.75V15.75C10.25 16.0261 10.0261 16.25 9.75 16.25C9.47386 16.25 9.25 16.0261 9.25 15.75V9.75C9.25 9.47386 9.47386 9.25 9.75 9.25Z" fill="black"/>
<path fill-rule="evenodd" clip-rule="evenodd" d="M14.25 9.25C14.5261 9.25 14.75 9.47386 14.75 9.75V15.75C14.75 16.0261 14.5261 16.25 14.25 16.25C13.9739 16.25 13.75 16.0261 13.75 15.75V9.75C13.75 9.47386 13.9739 9.25 14.25 9.25Z" fill="black"/>
<path fill-rule="evenodd" clip-rule="evenodd" d="M5.25 4.75C5.52614 4.75 5.75 4.97386 5.75 5.25V19.5C5.75 19.5663 5.77634 19.6299 5.82322 19.6768C5.87011 19.7237 5.9337 19.75 6 19.75H18C18.0663 19.75 18.1299 19.7237 18.1768 19.6768C18.2237 19.6299 18.25 19.5663 18.25 19.5V5.25C18.25 4.97386 18.4739 4.75 18.75 4.75C19.0261 4.75 19.25 4.97386 19.25 5.25V19.5C19.25 19.8315 19.1183 20.1495 18.8839 20.3839C18.6495 20.6183 18.3315 20.75 18 20.75H6C5.66848 20.75 5.35054 20.6183 5.11612 20.3839C4.8817 20.1495 4.75 19.8315 4.75 19.5V5.25C4.75 4.97386 4.97386 4.75 5.25 4.75Z" fill="black"/>
<path fill-rule="evenodd" clip-rule="evenodd" d="M8.33579 2.33579C8.71086 1.96071 9.21957 1.75 9.75 1.75H14.25C14.7804 1.75 15.2891 1.96071 15.6642 2.33579C16.0393 2.71086 16.25 3.21957 16.25 3.75V5.25C16.25 5.52614 16.0261 5.75 15.75 5.75C15.4739 5.75 15.25 5.52614 15.25 5.25V3.75C15.25 3.48478 15.1446 3.23043 14.9571 3.04289C14.7696 2.85536 14.5152 2.75 14.25 2.75H9.75C9.48478 2.75 9.23043 2.85536 9.04289 3.04289C8.85536 3.23043 8.75 3.48478 8.75 3.75V5.25C8.75 5.52614 8.52614 5.75 8.25 5.75C7.97386 5.75 7.75 5.52614 7.75 5.25V3.75C7.75 3.21957 7.96071 2.71086 8.33579 2.33579Z" fill="black"/>
</svg>
