<svg width="32" height="32" viewBox="0 0 32 32" fill="none" xmlns="http://www.w3.org/2000/svg">
<path fill-rule="evenodd" clip-rule="evenodd" d="M13.2799 5.64056C12.9182 5.95214 12.5061 6.25869 12.0424 6.45053C11.5877 6.63868 11.0852 6.70669 10.6171 6.73707C10.3113 6.75693 9.97758 6.76206 9.66302 6.76689C9.50763 6.76928 9.35691 6.7716 9.21654 6.77558C8.26675 6.80254 7.64294 6.91371 7.27771 7.27893C6.91249 7.64416 6.80132 8.26797 6.77436 9.21776C6.77038 9.35812 6.76806 9.50884 6.76568 9.66422C6.76084 9.97879 6.75571 10.3125 6.73586 10.6183C6.70547 11.0864 6.63746 11.5889 6.44932 12.0436C6.25748 12.5073 5.95093 12.9194 5.63935 13.2811C5.42484 13.53 5.18158 13.7837 4.95382 14.0213C4.85672 14.1225 4.76243 14.2209 4.67439 14.3146C4.3628 14.6465 4.10451 14.9459 3.92343 15.2391C3.74511 15.5278 3.66536 15.7731 3.66536 15.9999C3.66536 16.2266 3.74511 16.472 3.92343 16.7607C4.10451 17.0538 4.3628 17.3533 4.67439 17.6852C4.76243 17.7789 4.85671 17.8773 4.95382 17.9785C5.18158 18.2161 5.42484 18.4698 5.63934 18.7188C5.95092 19.0804 6.25747 19.4925 6.44931 19.9562C6.63746 20.4109 6.70547 20.9134 6.73585 21.3815C6.75571 21.6873 6.76084 22.021 6.76567 22.3356C6.76806 22.491 6.77038 22.6417 6.77436 22.7821C6.80132 23.7319 6.91249 24.3557 7.27771 24.7209C7.64294 25.0861 8.26675 25.1973 9.21653 25.2242C9.35691 25.2282 9.50763 25.2306 9.66302 25.2329C9.97759 25.2378 10.3113 25.2429 10.6171 25.2628C11.0852 25.2931 11.5877 25.3612 12.0424 25.5493C12.5061 25.7411 12.9182 26.0477 13.2798 26.3593C13.5288 26.5738 13.7825 26.817 14.02 27.0448C14.1213 27.1419 14.2196 27.2362 14.3134 27.3242C14.6453 27.6358 14.9447 27.8941 15.2379 28.0752C15.5266 28.2535 15.7719 28.3333 15.9987 28.3333C16.2254 28.3333 16.4708 28.2535 16.7594 28.0752C17.0526 27.8941 17.352 27.6358 17.6839 27.3242C17.7777 27.2362 17.876 27.1419 17.9773 27.0448C18.2149 26.817 18.4686 26.5738 18.7175 26.3593C19.0792 26.0477 19.4913 25.7411 19.955 25.5493C20.4097 25.3612 20.9122 25.2931 21.3803 25.2628C21.6861 25.2429 22.0198 25.2378 22.3344 25.2329C22.4898 25.2306 22.6405 25.2282 22.7809 25.2243C23.7306 25.1973 24.3545 25.0861 24.7197 24.7209C25.0849 24.3557 25.1961 23.7319 25.223 22.7821C25.227 22.6417 25.2293 22.491 25.2317 22.3356C25.2366 22.021 25.2417 21.6873 25.2615 21.3815C25.2919 20.9134 25.3599 20.4109 25.5481 19.9562C25.7399 19.4925 26.0465 19.0804 26.358 18.7188C26.5726 18.4698 26.8158 18.2161 27.0436 17.9786C27.1407 17.8773 27.235 17.779 27.323 17.6852C27.6346 17.3533 27.8929 17.0539 28.074 16.7607C28.2523 16.4721 28.332 16.2267 28.332 16C28.332 15.7732 28.2523 15.5279 28.074 15.2392C27.8929 14.946 27.6346 14.6466 27.323 14.3147C27.235 14.2209 27.1407 14.1226 27.0436 14.0213C26.8158 13.7838 26.5726 13.53 26.3581 13.2811C26.0465 12.9195 25.7399 12.5073 25.5481 12.0437C25.3599 11.5889 25.2919 11.0864 25.2615 10.6183C25.2417 10.3125 25.2366 9.97882 25.2317 9.66425C25.2293 9.50886 25.227 9.35814 25.223 9.21776C25.1961 8.26797 25.0849 7.64416 24.7197 7.27893C24.3545 6.91371 23.7306 6.80254 22.7809 6.77559C22.6405 6.7716 22.4898 6.76929 22.3344 6.7669C22.0198 6.76206 21.6861 6.75693 21.3803 6.73708C20.9122 6.70669 20.4097 6.63868 19.955 6.45054C19.4913 6.2587 19.0792 5.95215 18.7176 5.64057C18.4686 5.42606 18.2149 5.1828 17.9774 4.95504C17.8761 4.85794 17.7778 4.76365 17.684 4.67561C17.3521 4.36402 17.0527 4.10573 16.7595 3.92465C16.4708 3.74633 16.2255 3.66659 15.9987 3.66659C15.772 3.66659 15.5266 3.74633 15.238 3.92465C14.9448 4.10573 14.6454 4.36402 14.3135 4.67561C14.2197 4.76365 14.1213 4.85794 14.0201 4.95504C13.7825 5.1828 13.5288 5.42606 13.2799 5.64056ZM14.5373 2.79027C14.9555 2.53195 15.4439 2.33325 15.9987 2.33325C16.5535 2.33325 17.042 2.53195 17.4602 2.79027C17.8739 3.04583 18.2545 3.38236 18.5966 3.70355C18.7134 3.81321 18.8242 3.91952 18.9318 4.02274C19.1561 4.23787 19.3664 4.43961 19.5879 4.63047C19.9092 4.90729 20.1948 5.10682 20.4647 5.2185C20.7177 5.32316 21.0478 5.37936 21.4667 5.40655C21.742 5.42442 22.0141 5.42845 22.3055 5.43276C22.4691 5.43518 22.6389 5.43769 22.8187 5.44279C23.7181 5.46831 24.8772 5.55085 25.6625 6.33612C26.4478 7.1214 26.5303 8.28055 26.5558 9.17993C26.5609 9.35975 26.5634 9.52946 26.5659 9.69309C26.5702 9.9845 26.5742 10.2566 26.5921 10.532C26.6193 10.9508 26.6755 11.281 26.7801 11.5339C26.8918 11.8038 27.0913 12.0895 27.3682 12.4108C27.559 12.6323 27.7608 12.8426 27.9759 13.0668C28.0791 13.1744 28.1854 13.2853 28.2951 13.4021C28.6163 13.7442 28.9528 14.1248 29.2083 14.5385C29.4667 14.9567 29.6654 15.4452 29.6654 16C29.6654 16.5548 29.4667 17.0432 29.2083 17.4614C28.9528 17.8752 28.6163 18.2557 28.2951 18.5978C28.1854 18.7146 28.0791 18.8255 27.9759 18.9331C27.7607 19.1573 27.559 19.3676 27.3681 19.5891C27.0913 19.9104 26.8918 20.196 26.7801 20.466C26.6755 20.7189 26.6193 21.0491 26.5921 21.4679C26.5742 21.7433 26.5702 22.0153 26.5659 22.3068C26.5634 22.4704 26.5609 22.6401 26.5558 22.8199C26.5303 23.7193 26.4478 24.8784 25.6625 25.6637C24.8772 26.449 23.7181 26.5315 22.8187 26.5571C22.6389 26.5622 22.4692 26.5647 22.3055 26.5671C22.0141 26.5714 21.742 26.5754 21.4666 26.5933C21.0478 26.6205 20.7177 26.6767 20.4647 26.7813C20.1948 26.893 19.9091 27.0926 19.5879 27.3694C19.3663 27.5602 19.156 27.762 18.9318 27.9771C18.8242 28.0803 18.7134 28.1866 18.5965 28.2963C18.2544 28.6175 17.8739 28.954 17.4601 29.2096C17.0419 29.4679 16.5535 29.6666 15.9987 29.6666C15.4438 29.6666 14.9554 29.4679 14.5372 29.2096C14.1235 28.954 13.7429 28.6175 13.4008 28.2963C13.284 28.1866 13.1732 28.0803 13.0656 27.9771C12.8413 27.762 12.631 27.5602 12.4095 27.3694C12.0882 27.0925 11.8026 26.893 11.5327 26.7813C11.2797 26.6767 10.9496 26.6205 10.5307 26.5933C10.2554 26.5754 9.98327 26.5714 9.69186 26.5671C9.52823 26.5647 9.35852 26.5621 9.17871 26.557C8.27933 26.5315 7.12018 26.449 6.3349 25.6637C5.54963 24.8784 5.46709 23.7193 5.44156 22.8199C5.43646 22.6401 5.43395 22.4704 5.43153 22.3067C5.42722 22.0153 5.4232 21.7432 5.40532 21.4679C5.37813 21.0491 5.32193 20.7189 5.21727 20.4659L5.81981 20.2166L5.21727 20.4659C5.10559 20.196 4.90605 19.9104 4.62924 19.5891C4.43837 19.3676 4.23664 19.1573 4.02151 18.933C3.91829 18.8254 3.81198 18.7146 3.70231 18.5978C3.38113 18.2556 3.0446 17.8751 2.78905 17.4613C2.53073 17.0431 2.33203 16.5547 2.33203 15.9999C2.33203 15.4451 2.53073 14.9566 2.78905 14.5384C3.04461 14.1247 3.38114 13.7441 3.70233 13.402C3.81199 13.2852 3.91829 13.1744 4.02151 13.0668C4.23664 12.8425 4.43838 12.6322 4.62925 12.4107C4.90607 12.0895 5.1056 11.8038 5.21728 11.5339C5.32194 11.2809 5.37814 10.9508 5.40533 10.532C5.4232 10.2566 5.42723 9.98451 5.43154 9.69311C5.43396 9.52947 5.43647 9.35975 5.44157 9.17993C5.46709 8.28055 5.54963 7.1214 6.3349 6.33613C7.12018 5.55085 8.27933 5.46831 9.17871 5.44279C9.35854 5.43768 9.52826 5.43517 9.6919 5.43275C9.98329 5.42844 10.2554 5.42442 10.5308 5.40654C10.9496 5.37935 11.2797 5.32315 11.5327 5.2185L11.7876 5.83451L11.5327 5.21849C11.8026 5.10681 12.0883 4.90727 12.4095 4.63046C12.6311 4.43959 12.8414 4.23785 13.0656 4.02272C13.1732 3.9195 13.284 3.8132 13.4009 3.70353C13.743 3.38235 14.1235 3.04582 14.5373 2.79027Z" fill="#FE5050"/>
<path fill-rule="evenodd" clip-rule="evenodd" d="M15.9987 9.33325C16.3669 9.33325 16.6654 9.63173 16.6654 9.99992V16.9999C16.6654 17.3681 16.3669 17.6666 15.9987 17.6666C15.6305 17.6666 15.332 17.3681 15.332 16.9999V9.99992C15.332 9.63173 15.6305 9.33325 15.9987 9.33325Z" fill="#FE5050"/>
<path d="M16 22.5C16.5523 22.5 17 22.0523 17 21.5C17 20.9477 16.5523 20.5 16 20.5C15.4477 20.5 15 20.9477 15 21.5C15 22.0523 15.4477 22.5 16 22.5Z" fill="#FE5050"/>
</svg>
