<svg width="32" height="32" viewBox="0 0 32 32" fill="none" xmlns="http://www.w3.org/2000/svg">
<path d="M16 32C24.8366 32 32 24.8366 32 16C32 7.16344 24.8366 0 16 0C7.16344 0 0 7.16344 0 16C0 24.8366 7.16344 32 16 32Z" fill="#25D366"/>
<path fill-rule="evenodd" clip-rule="evenodd" d="M16.5276 24.9017H16.5237C14.9314 24.9012 13.3668 24.5017 11.9772 23.7437L6.93359 25.0667L8.28334 20.1366C7.45075 18.6937 7.01265 17.057 7.01336 15.3802C7.01545 10.1345 11.2835 5.8667 16.5276 5.8667C19.0727 5.8678 21.4615 6.85861 23.2577 8.65697C25.054 10.4552 26.0427 12.8456 26.0417 15.3877C26.0396 20.6322 21.7733 24.8996 16.5276 24.9017ZM12.2108 22.0211L12.4996 22.1925C13.7137 22.913 15.1055 23.2942 16.5244 23.2948H16.5276C20.8862 23.2948 24.4335 19.7473 24.4353 15.387C24.4361 13.274 23.6144 11.2873 22.1214 9.79254C20.6284 8.29781 18.6429 7.47424 16.5308 7.47351C12.1689 7.47351 8.62144 11.0206 8.61971 15.3806C8.6191 16.8748 9.03717 18.33 9.82875 19.589L10.0168 19.8882L9.21792 22.8062L12.2108 22.0211ZM20.9952 17.4361C21.161 17.5163 21.273 17.5704 21.3208 17.6502C21.3802 17.7493 21.3802 18.2253 21.1822 18.7807C20.984 19.3359 20.0343 19.8428 19.5775 19.911C19.168 19.9722 18.6497 19.9978 18.0802 19.8168C17.7349 19.7072 17.2922 19.561 16.725 19.316C14.4964 18.3537 12.9903 16.1937 12.7056 15.7854C12.6857 15.7568 12.6717 15.7368 12.664 15.7265L12.662 15.7239C12.5362 15.556 11.6933 14.4313 11.6933 13.2673C11.6933 12.1723 12.2312 11.5983 12.4788 11.3341C12.4957 11.316 12.5113 11.2994 12.5253 11.2841C12.7432 11.0461 13.0007 10.9866 13.1592 10.9866C13.3177 10.9866 13.4763 10.9881 13.6148 10.995C13.6319 10.9959 13.6497 10.9958 13.6681 10.9957C13.8066 10.9949 13.9793 10.9938 14.1497 11.4031C14.2153 11.5606 14.3112 11.7941 14.4123 12.0404C14.6169 12.5384 14.8429 13.0886 14.8827 13.1682C14.9421 13.2872 14.9817 13.426 14.9025 13.5847C14.8906 13.6085 14.8796 13.631 14.8691 13.6525C14.8096 13.774 14.7658 13.8633 14.6648 13.9813C14.625 14.0277 14.584 14.0777 14.5429 14.1276C14.4611 14.2272 14.3794 14.3268 14.3082 14.3978C14.1892 14.5163 14.0653 14.6449 14.2039 14.8829C14.3426 15.1209 14.8197 15.8994 15.5264 16.5298C16.2861 17.2074 16.9464 17.4938 17.281 17.6389C17.3464 17.6673 17.3993 17.6902 17.4382 17.7097C17.6758 17.8287 17.8145 17.8088 17.9532 17.6502C18.0918 17.4915 18.5474 16.956 18.7059 16.718C18.8643 16.4801 19.0229 16.5198 19.2407 16.5991C19.4587 16.6785 20.6275 17.2535 20.8652 17.3725C20.9116 17.3957 20.955 17.4167 20.9952 17.4361Z" fill="#FDFDFD"/>
</svg>
